<svg width="15" height="15" viewBox="0 0 15 15" fill="none" xmlns="http://www.w3.org/2000/svg">
<g opacity="0.7">
<path d="M11.0074 13.9729C10.4436 13.9729 9.74963 13.7919 8.95782 13.4311C7.57423 12.8006 6.00216 11.6599 4.64524 10.3038C3.213 8.87115 1.97596 7.17883 1.41701 5.88716C0.805295 4.48139 0.793735 3.38157 1.38475 2.79056L2.87442 1.30089C3.10002 1.07592 3.40562 0.949585 3.72422 0.949585C4.04282 0.949585 4.34842 1.07592 4.57402 1.30089L6.06313 2.79C6.28814 3.01557 6.41451 3.32118 6.41451 3.6398C6.41451 3.95841 6.28814 4.26402 6.06313 4.4896L5.51182 5.04072C5.11936 5.43318 5.58248 6.73733 6.89764 8.05212C7.4342 8.61258 8.07076 9.06785 8.77454 9.39449C9.3018 9.61524 9.71514 9.63128 9.90885 9.43756L10.4602 8.88626C10.6855 8.66093 10.9912 8.53435 11.3099 8.53435C11.6286 8.53435 11.9342 8.66093 12.1596 8.88626L13.6487 10.3754C13.8738 10.6009 14.0002 10.9065 14.0002 11.2252C14.0002 11.5438 13.8738 11.8494 13.6487 12.075L12.159 13.5646C12.0042 13.7063 11.8224 13.8155 11.6246 13.8856C11.4268 13.9558 11.2169 13.9855 11.0074 13.9729ZM3.72441 1.32196C3.61552 1.32174 3.50767 1.34304 3.40704 1.38464C3.30642 1.42623 3.215 1.4873 3.13805 1.56433L1.64801 3.054C1.17967 3.52234 1.21919 4.50078 1.75876 5.73875C2.29216 6.9715 3.52883 8.65973 4.90961 10.0401C6.23614 11.3669 7.76832 12.4792 9.11293 13.0916C10.4193 13.6869 11.4336 13.7628 11.8956 13.3012L13.3852 11.8115C13.5405 11.6559 13.6277 11.4451 13.6277 11.2253C13.6277 11.0056 13.5405 10.7948 13.3852 10.6392L11.8961 9.15007C11.7407 8.99465 11.5299 8.90734 11.3101 8.90734C11.0902 8.90734 10.8794 8.99465 10.724 9.15007L10.1727 9.70138C9.86243 10.0118 9.31504 10.025 8.63061 9.73866C7.88206 9.39328 7.20485 8.91071 6.63401 8.31593C5.23048 6.91203 4.63443 5.3916 5.24819 4.77634L5.7995 4.22522C5.95465 4.0696 6.04178 3.85881 6.04178 3.63905C6.04178 3.41929 5.95465 3.2085 5.7995 3.05288L4.31039 1.56433C4.23346 1.48737 4.14211 1.42634 4.04155 1.38475C3.941 1.34316 3.83322 1.32182 3.72441 1.32196Z" fill="#E0E0E0" stroke="#E0E0E0" stroke-width="0.6"/>
<path d="M2.52441 1.91351L2.78804 1.64989L5.7126 4.57444L5.44897 4.83807L2.52441 1.91351Z" fill="#E0E0E0" stroke="#E0E0E0" stroke-width="0.6"/>
<path d="M10.1089 9.49963L10.3725 9.23601L13.2972 12.1607L13.0336 12.4243L10.1089 9.49963Z" fill="#E0E0E0" stroke="#E0E0E0" stroke-width="0.6"/>
</g>
</svg>
